<svg width="44" height="44" viewBox="0 0 44 44" fill="none" xmlns="http://www.w3.org/2000/svg">
<path d="M22 14.3076V9.69226" stroke="#312D2D" stroke-width="3" stroke-linecap="round" stroke-linejoin="round"/>
<path d="M17.3846 26.6154C17.3846 28.9231 19.4462 29.6924 22 29.6924C24.5539 29.6924 26.6154 29.6924 26.6154 26.6154C26.6154 22 17.3846 22 17.3846 17.3847C17.3846 14.3077 19.4462 14.3077 22 14.3077C24.5539 14.3077 26.6154 15.477 26.6154 17.3847" stroke="#312D2D" stroke-width="3" stroke-linecap="round" stroke-linejoin="round"/>
<path d="M22 29.6924V34.3078" stroke="#312D2D" stroke-width="3" stroke-linecap="round" stroke-linejoin="round"/>
<path d="M22 42C33.0457 42 42 33.0457 42 22C42 10.9543 33.0457 2 22 2C10.9543 2 2 10.9543 2 22C2 33.0457 10.9543 42 22 42Z" stroke="#312D2D" stroke-width="3" stroke-linecap="round" stroke-linejoin="round"/>
</svg>
