<svg width="40" height="40" viewBox="0 0 40 40" fill="none" xmlns="http://www.w3.org/2000/svg">
<g clip-path="url(#clip0_71_2205)">
<path d="M20 38.5714C30.2569 38.5714 38.5714 30.2569 38.5714 20C38.5714 9.7433 30.2569 1.42859 20 1.42859C9.7433 1.42859 1.42859 9.7433 1.42859 20C1.42859 30.2569 9.7433 38.5714 20 38.5714Z" stroke="#312D2D" stroke-width="3" stroke-linecap="round" stroke-linejoin="round"/>
<path d="M10.5714 22.8572C12 28 17.7143 31.1429 22.8571 29.7143C26 28.5715 28.5714 26 29.4286 22.8572" stroke="#312D2D" stroke-width="3" stroke-linecap="round" stroke-linejoin="round"/>
<path d="M13.7143 15.5714C13.3198 15.5714 13 15.2516 13 14.8571C13 14.4626 13.3198 14.1428 13.7143 14.1428" stroke="#312D2D" stroke-width="3" stroke-linecap="round" stroke-linejoin="round"/>
<path d="M13.7143 15.5714C14.1088 15.5714 14.4286 15.2516 14.4286 14.8571C14.4286 14.4626 14.1088 14.1428 13.7143 14.1428" stroke="#312D2D" stroke-width="3" stroke-linecap="round" stroke-linejoin="round"/>
<path d="M26.2857 15.5714C25.8912 15.5714 25.5714 15.2516 25.5714 14.8571C25.5714 14.4626 25.8912 14.1428 26.2857 14.1428" stroke="#312D2D" stroke-width="3" stroke-linecap="round" stroke-linejoin="round"/>
<path d="M26.2857 15.5714C26.6802 15.5714 27 15.2516 27 14.8571C27 14.4626 26.6802 14.1428 26.2857 14.1428" stroke="#312D2D" stroke-width="3" stroke-linecap="round" stroke-linejoin="round"/>
</g>
<defs>
<clipPath id="clip0_71_2205">
<rect width="40" height="40" fill="white"/>
</clipPath>
</defs>
</svg>
