<svg width="40" height="40" viewBox="0 0 40 40" fill="none" xmlns="http://www.w3.org/2000/svg">
<path d="M34.2858 29.9429C30.9667 29.9226 27.7128 29.0199 24.8576 27.3275C22.0024 25.6351 19.6487 23.2138 18.0378 20.3118C16.4269 17.4099 15.6168 14.1317 15.6905 10.8134C15.7642 7.49513 16.719 4.25615 18.4572 1.42857C13.8777 2.23252 9.76146 4.71241 6.91032 8.38515C4.05918 12.0579 2.67731 16.6605 3.03391 21.2963C3.39052 25.9321 5.46005 30.2692 8.83936 33.4627C12.2187 36.6562 16.6658 38.4773 21.3143 38.5714C24.4947 38.5795 27.6232 37.7657 30.3965 36.2089C33.1697 34.6521 35.4937 32.405 37.1429 29.6857C36.1982 29.8418 35.2432 29.9278 34.2858 29.9429V29.9429Z" stroke="#312D2D" stroke-width="2" stroke-linecap="round" stroke-linejoin="round"/>
</svg>
