<svg width="40" height="40" viewBox="0 0 40 40" fill="none" xmlns="http://www.w3.org/2000/svg">
<path d="M34.2858 29.9428C30.9667 29.9225 27.7128 29.0198 24.8576 27.3274C22.0024 25.635 19.6487 23.2137 18.0378 20.3117C16.4269 17.4098 15.6168 14.1316 15.6905 10.8133C15.7642 7.49502 16.719 4.25605 18.4572 1.42847C13.8777 2.23242 9.76146 4.7123 6.91032 8.38505C4.05918 12.0578 2.67731 16.6604 3.03391 21.2962C3.39052 25.932 5.46005 30.2691 8.83936 33.4626C12.2187 36.6561 16.6658 38.4772 21.3143 38.5713C24.4947 38.5794 27.6232 37.7656 30.3965 36.2088C33.1697 34.652 35.4937 32.4049 37.1429 29.6856C36.1982 29.8417 35.2432 29.9277 34.2858 29.9428V29.9428Z" stroke="white" stroke-width="2" stroke-linecap="round" stroke-linejoin="round"/>
</svg>
