<svg width="40" height="40" viewBox="0 0 40 40" fill="none" xmlns="http://www.w3.org/2000/svg">
<path d="M33.2402 29.6369C30.0343 29.6172 26.8912 28.7424 24.1333 27.102C21.3754 25.4617 19.1019 23.1149 17.5459 20.3022C15.9899 17.4895 15.2074 14.3122 15.2786 11.0961C15.3497 7.87988 16.2721 4.74057 17.951 2C13.5276 2.77921 9.55158 5.18279 6.79759 8.74252C4.0436 12.3022 2.70882 16.7632 3.05328 21.2564C3.39773 25.7496 5.39674 29.9532 8.6609 33.0484C11.9251 36.1436 16.2206 37.9087 20.7108 37.9999C23.7828 38.0078 26.8047 37.219 29.4834 35.7101C32.1622 34.2012 34.4069 32.0233 36 29.3876C35.0875 29.539 34.165 29.6223 33.2402 29.6369Z" fill="#A0A0A0" stroke="#312D2D" stroke-linecap="round" stroke-linejoin="round"/>
<path d="M34.2857 29.9429C30.9667 29.9226 27.7127 29.02 24.8576 27.3275C22.0024 25.6351 19.6487 23.2138 18.0378 20.3118C16.4269 17.4099 15.6167 14.1317 15.6904 10.8134C15.7641 7.49515 16.719 4.25617 18.4571 1.42859C13.8776 2.23254 9.7614 4.71242 6.91026 8.38517C4.05911 12.0579 2.67725 16.6605 3.03385 21.2963C3.39046 25.9321 5.45999 30.2692 8.8393 33.4627C12.2186 36.6562 16.6657 38.4773 21.3143 38.5714C24.4946 38.5796 27.6231 37.7657 30.3964 36.2089C33.1697 34.6521 35.4936 32.4051 37.1428 29.6857C36.1981 29.8418 35.2431 29.9278 34.2857 29.9429Z" stroke="#312D2D" stroke-width="2" stroke-linecap="round" stroke-linejoin="round"/>
</svg>
