<svg width="63" height="63" viewBox="0 0 63 63" fill="none" xmlns="http://www.w3.org/2000/svg">
<path d="M31.5713 38.7142C35.5162 38.7142 38.7142 35.5162 38.7142 31.5713C38.7142 27.6264 35.5162 24.4285 31.5713 24.4285C27.6264 24.4285 24.4285 27.6264 24.4285 31.5713C24.4285 35.5162 27.6264 38.7142 31.5713 38.7142Z" stroke="white" stroke-width="3" stroke-linecap="round" stroke-linejoin="round"/>
<path d="M50.1429 31.5714L43.4571 36.4857L44.7143 44.7143L36.4857 43.4571L31.5714 50.1429L26.6571 43.4571L18.4286 44.7143L19.6857 36.4857L13 31.5714L19.6857 26.6571L18.4286 18.4286L26.6571 19.6857L31.5714 13L36.4857 19.6857L44.7143 18.4286L43.4571 26.6571L50.1429 31.5714Z" stroke="white" stroke-width="3" stroke-linecap="round" stroke-linejoin="round"/>
</svg>
