<svg width="70" height="69" viewBox="0 0 70 69" fill="none" xmlns="http://www.w3.org/2000/svg">
<path d="M32.6667 68.0533C16.8782 68.0533 2.83617 59.3073 0.105 53.2869C0.0361667 53.1344 0 52.9678 0 52.8V44.5867C0 44.2511 0.1435 43.9308 0.393167 43.7079C0.642833 43.4849 0.974167 43.384 1.30783 43.4216L2.69617 43.5929C7.81783 44.2276 14.1925 45.0185 20.5683 45.0185C28.4375 45.0185 34.4633 43.8264 38.9923 41.3764C50.169 35.3279 51.3228 14.2349 51.3333 14.0225C51.3648 13.3971 51.8782 12.9067 52.5 12.9067H61.8333C62.1542 12.9067 62.4622 13.0393 62.6838 13.2751C69.2417 20.267 70 31.8149 70 39.8933C70 58.3804 51.219 68.0533 32.6667 68.0533ZM2.33333 52.5313C4.68767 57.1355 17.15 65.7067 32.6667 65.7067C50.0593 65.7067 67.6667 56.8398 67.6667 39.8933C67.6667 35.545 67.6667 22.4623 61.3212 15.2533H53.5873C53.1907 19.9244 50.9868 37.5525 40.0995 43.4427C35.2217 46.0803 28.8342 47.364 20.5695 47.364C14.0502 47.364 7.59733 46.5637 2.41267 45.9219L2.33333 45.9125V52.5313Z" fill="#847757"/>
<path d="M53.9397 15.2874C53.4345 15.2874 52.969 14.9553 52.8208 14.4426L50.2133 5.4736C50.183 5.36683 50.1667 5.25653 50.1667 5.14507V1.17333C50.1667 0.525653 50.6893 0 51.3333 0H61.8333C62.4773 0 63 0.525653 63 1.17333V14.08C63 14.7277 62.4773 15.2533 61.8333 15.2533C61.1893 15.2533 60.6667 14.7277 60.6667 14.08V2.34667H52.5V4.97728L55.0608 13.7843C55.2428 14.4062 54.8882 15.0574 54.2698 15.2404C54.1602 15.2721 54.0493 15.2874 53.9397 15.2874Z" fill="#847757"/>
<path d="M24.199 54.8287C17.1173 54.8287 10.5327 53.8642 6.67917 52.7554C6.05967 52.5782 5.7015 51.9282 5.87767 51.3064C6.05383 50.6833 6.70017 50.3231 7.31967 50.4991C14.7443 52.6322 33.9885 54.2796 44.8257 48.4164C55.9883 42.3773 57.1562 21.2761 57.1667 21.0625C57.1982 20.416 57.7453 19.9056 58.3893 19.949C59.0333 19.9807 59.5303 20.531 59.4977 21.1775C59.4533 22.0986 58.2575 43.8146 45.9317 50.4838C39.9513 53.7176 31.7893 54.8287 24.199 54.8287Z" fill="#847757"/>
</svg>
