<svg width="112" height="113" viewBox="0 0 112 113" fill="none" xmlns="http://www.w3.org/2000/svg">
<path d="M54.046 3.45649C55.0468 2.20236 56.9532 2.20236 57.954 3.45649L62.8071 9.53766C64.9246 12.1911 68.5605 13.0913 71.6715 11.7323L78.7194 8.65355C80.1831 8.01415 81.8629 8.89262 82.1727 10.4596L84.6252 9.97465L82.1727 10.4596L83.7209 18.2895C84.3727 21.5859 87.1374 24.0465 90.4872 24.3114L98.2536 24.9255C99.8304 25.0502 100.897 26.5896 100.459 28.1096L98.2118 35.9126C97.2927 39.1042 98.5821 42.5202 101.381 44.3083L108.116 48.6113C109.44 49.4573 109.665 51.3008 108.583 52.44L103.019 58.2952C100.739 60.6958 100.302 64.3081 101.945 67.183L105.976 74.235C106.758 75.6025 106.096 77.3434 104.603 77.8453L97.1246 80.3592C93.9597 81.4231 91.8793 84.4511 92.0212 87.7869L92.3641 95.8489C92.4317 97.4372 91.0191 98.6843 89.4514 98.4204L81.8394 97.1389C78.5059 96.5777 75.2089 98.3159 73.7885 101.383L70.4786 108.532C69.8052 109.986 67.9566 110.44 66.6861 109.463L60.5716 104.761C57.8762 102.689 54.1238 102.689 51.4284 104.761L45.3139 109.463C44.0434 110.44 42.1948 109.986 41.5214 108.532L38.2115 101.383C36.7911 98.3159 33.4941 96.5777 30.1606 97.1389L22.5486 98.4204C20.9809 98.6843 19.5683 97.4372 19.6359 95.8489L19.9788 87.7869C20.1207 84.4511 18.0403 81.4231 14.8754 80.3592L7.3975 77.8453C5.90446 77.3434 5.24201 75.6025 6.02368 74.235L10.0546 67.183C11.6979 64.3081 11.2613 60.6958 8.98051 58.2952L3.41747 52.44C2.33511 51.3008 2.5597 49.4573 3.88391 48.6113L10.619 44.3083C13.4179 42.5202 14.7073 39.1042 13.7882 35.9126L11.5411 28.1096C11.1034 26.5896 12.1696 25.0502 13.7464 24.9255L21.5128 24.3114C24.8626 24.0465 27.6273 21.5859 28.2791 18.2895L29.8273 10.4596C30.1371 8.89262 31.8169 8.01415 33.2806 8.65355L40.3285 11.7323C43.4395 13.0913 47.0754 12.1911 49.1929 9.53766L54.046 3.45649Z" stroke="#A0A0A0" stroke-opacity="0.15" stroke-width="5"/>
</svg>
