<svg width="67" height="58" viewBox="0 0 67 58" fill="none" xmlns="http://www.w3.org/2000/svg">
<g filter="url(#filter0_d_18_81)">
<path d="M31.8124 47.8629L15.8387 20.1042C15.2343 19.0533 15.9898 17.74 17.1996 17.74H49.1469C50.3566 17.74 51.1122 19.0533 50.5077 20.1042L34.5341 47.8629C33.9288 48.9138 32.4177 48.9138 31.8124 47.8629Z" fill="black"/>
<path d="M31.8124 47.8629L15.8387 20.1042C15.2343 19.0533 15.9898 17.74 17.1996 17.74H49.1469C50.3566 17.74 51.1122 19.0533 50.5077 20.1042L34.5341 47.8629C33.9288 48.9138 32.4177 48.9138 31.8124 47.8629Z" stroke="white" stroke-width="2" stroke-miterlimit="10"/>
</g>
<path d="M1 28.7223L8.97517 14.8612L16.9512 1" fill="#E30613"/>
<path d="M1 28.7223L8.97517 14.8612L16.9512 1" stroke="#E30613" stroke-width="2" stroke-miterlimit="10" stroke-linecap="round" stroke-linejoin="round"/>
<path d="M66 28.7223L50.0488 1L66 28.7223Z" fill="#E30613" stroke="#008D36" stroke-width="2" stroke-miterlimit="10" stroke-linecap="round" stroke-linejoin="round"/>
<path d="M16.2979 57L33.173 56.9991L50.0481 56.9974" fill="#E30613"/>
<path d="M16.2979 57L33.173 56.9991L50.0481 56.9974" stroke="#1D71B8" stroke-width="2" stroke-miterlimit="10" stroke-linecap="round" stroke-linejoin="round"/>
<defs>
<filter id="filter0_d_18_81" x="6.625" y="8.73997" width="53.0967" height="48.9111" filterUnits="userSpaceOnUse" color-interpolation-filters="sRGB">
<feFlood flood-opacity="0" result="BackgroundImageFix"/>
<feColorMatrix in="SourceAlpha" type="matrix" values="0 0 0 0 0 0 0 0 0 0 0 0 0 0 0 0 0 0 127 0" result="hardAlpha"/>
<feOffset/>
<feGaussianBlur stdDeviation="4"/>
<feComposite in2="hardAlpha" operator="out"/>
<feColorMatrix type="matrix" values="0 0 0 0 1 0 0 0 0 1 0 0 0 0 1 0 0 0 0.65 0"/>
<feBlend mode="normal" in2="BackgroundImageFix" result="effect1_dropShadow_18_81"/>
<feBlend mode="normal" in="SourceGraphic" in2="effect1_dropShadow_18_81" result="shape"/>
</filter>
</defs>
</svg>
