<svg width="136" height="136" viewBox="0 0 136 136" fill="none" xmlns="http://www.w3.org/2000/svg">
<path d="M135.5 68C135.5 59.1358 133.754 50.3583 130.362 42.1689C126.97 33.9794 121.998 26.5382 115.73 20.2703C109.462 14.0023 102.021 9.03032 93.8311 5.63813C85.6417 2.24594 76.8642 0.5 68 0.5C50.0979 0.5 32.929 7.61159 20.2703 20.2703C7.61159 32.929 0.5 50.0979 0.5 68C0.5 85.9021 7.61159 103.071 20.2703 115.73C32.929 128.388 50.0979 135.5 68 135.5C85.9021 135.5 103.071 128.388 115.73 115.73C128.388 103.071 135.5 85.9021 135.5 68ZM121.528 61.25H101.75C100.637 45.375 95.1975 30.1079 86.0225 17.105C95.4486 20.4528 103.76 26.353 110.029 34.1477C116.298 41.9424 120.279 51.3253 121.528 61.25ZM48.29 74.75H88.25C86.5226 91.4264 79.4146 107.088 68 119.368C56.593 107.139 49.648 91.4177 48.29 74.75ZM48.29 61.25C49.862 44.6573 56.7787 29.0236 68 16.7C79.5068 28.8913 86.6309 44.5643 88.25 61.25H48.29ZM50.72 16.9025C41.4965 29.9774 35.9699 45.2979 34.7225 61.25H14.4725C15.7476 51.2026 19.8226 41.7163 26.2321 33.8745C32.6416 26.0327 41.1273 20.1515 50.72 16.9025ZM14.4725 74.75H34.7225C35.8342 90.6886 41.3232 106.011 50.585 119.03C41.0268 115.765 32.5759 109.885 26.1923 102.058C19.8087 94.2303 15.7484 84.7695 14.4725 74.75ZM85.685 118.962C94.9218 105.94 100.472 90.6648 101.75 74.75H121.663C120.386 84.7416 116.34 94.1771 109.983 101.99C103.625 109.803 95.2086 115.682 85.685 118.962Z" fill="white"/>
</svg>
