<svg width="458" height="500" viewBox="0 0 458 500" fill="none" xmlns="http://www.w3.org/2000/svg">
<g clip-path="url(#clip0_47_1007)">
<path opacity="0.4" d="M310.52 385.65L262.7 358C259.25 356 259.7 352.53 263.7 350.23L294.7 332.34L355 367.21L324 385.1C320 387.39 314 387.64 310.52 385.65Z" fill="#D6D8E5"/>
<path d="M314.841 383.12L267.001 355.51C263.561 353.51 264.001 350.04 268.001 347.74L299.001 329.85L359.321 364.68L328.321 382.57C324.311 384.86 318.291 385.11 314.841 383.12Z" fill="#B1B4C4"/>
<path d="M359.28 364.68V362.85L356.49 364.46L359.28 364.68Z" fill="#B1B4C4"/>
<path d="M264.69 352.22V350.36L267.55 351.55L264.69 352.22Z" fill="#B1B4C4"/>
<path d="M314.841 381.3L267.001 353.68C263.561 351.68 264.001 348.22 268.001 345.92L299.001 328L359.321 362.82L328.321 380.71C324.311 383 318.291 383.29 314.841 381.3Z" fill="#D6D8E5"/>
<path d="M299.13 328.11L291.66 303.35L352.63 338.32L359.28 362.85L299.13 328.11Z" fill="#9EA1AF"/>
<path d="M357.51 363.87L359.28 362.87L356.65 360.77L357.51 363.87Z" fill="#9EA1AF"/>
<path d="M297.2 329.04L289.74 304.28L350.71 339.25L357.51 363.87L297.2 329.04Z" fill="#B1B4C4"/>
<path d="M452 405.61L216 269.35C212.69 267.44 210 262.35 210 257.89V75.33C210 70.92 212.68 68.89 216 70.8L452 207.06C455.31 208.97 458 214.06 458 218.51V401.08C458 405.49 455.29 407.52 452 405.61Z" fill="#B1B4C4"/>
<path d="M453.19 407.49L455.81 405.98L454.68 398.23L453.19 407.49Z" fill="#B1B4C4"/>
<path d="M209.551 71.93L212.131 70.44L215.831 72.55C215.831 72.55 211.891 73.15 211.831 73.13C211.771 73.11 209.551 71.93 209.551 71.93Z" fill="#B1B4C4"/>
<path d="M449.82 406.86L213.82 270.6C210.51 268.69 207.82 263.6 207.82 259.14V76.58C207.82 72.17 210.51 70.14 213.82 72.05L449.82 208.31C453.13 210.22 455.82 215.31 455.82 219.76V402.33C455.81 406.74 453.13 408.77 449.82 406.86Z" fill="#E4E7F2"/>
<path d="M449.4 407.09L213.4 270.83C210.09 268.92 207.4 263.83 207.4 259.38V76.82C207.4 72.41 210.08 70.38 213.4 72.29L449.4 208.55C452.71 210.46 455.4 215.55 455.4 220V402.56C455.4 407 452.71 409 449.4 407.09Z" fill="#D6D8E5"/>
<path d="M452.151 396L210.391 256.42L210.521 77.55C210.521 75.72 211.811 74.98 213.391 75.89L449.391 212.15C450.23 212.698 450.927 213.437 451.426 214.306C451.925 215.175 452.211 216.149 452.261 217.15L452.151 396Z" fill="white"/>
<path d="M437.18 240.5L222.88 116.78C222.138 116.248 221.531 115.549 221.107 114.74C220.683 113.931 220.455 113.033 220.44 112.12V96.65C220.44 94.86 221.53 94.03 222.88 94.81L437.18 218.53C437.924 219.063 438.532 219.764 438.956 220.575C439.38 221.386 439.607 222.285 439.62 223.2V238.66C439.62 240.46 438.53 241.28 437.18 240.5Z" fill="#E9EAF2"/>
<path d="M426 281.91L375.63 252.83C374.888 252.298 374.281 251.599 373.857 250.79C373.433 249.98 373.205 249.083 373.19 248.17V215.66C373.19 213.86 374.28 213.04 375.63 213.82L426 242.9C426.744 243.431 427.352 244.13 427.776 244.939C428.2 245.749 428.427 246.646 428.44 247.56V280.07C428.4 281.86 427.31 282.69 426 281.91Z" fill="#E9EAF2"/>
<path d="M359.61 292.47L233.25 219.47C232.878 219.205 232.573 218.856 232.361 218.451C232.149 218.046 232.036 217.597 232.03 217.14V211.55C232.03 210.65 232.57 210.23 233.25 210.62L359.61 283.62C359.981 283.886 360.285 284.236 360.496 284.64C360.708 285.045 360.823 285.493 360.83 285.95V291.55C360.83 292.44 360.28 292.86 359.61 292.47Z" fill="#E9EAF2"/>
<path d="M347.171 298.53L233.611 233C233.24 232.733 232.937 232.383 232.726 231.979C232.514 231.575 232.399 231.126 232.391 230.67V227.88C232.391 226.98 232.941 226.57 233.611 226.96L347.171 292.52C347.541 292.786 347.845 293.136 348.057 293.54C348.269 293.945 348.383 294.393 348.391 294.85V297.63C348.391 298.5 347.841 298.92 347.171 298.53Z" fill="#E9EAF2"/>
<path d="M347.171 309.09L233.611 243.53C233.24 243.264 232.936 242.914 232.725 242.51C232.513 242.105 232.398 241.657 232.391 241.2V238.41C232.391 237.52 232.941 237.1 233.611 237.49L347.171 303.05C347.541 303.316 347.845 303.666 348.057 304.07C348.269 304.475 348.383 304.923 348.391 305.38V308.17C348.391 309.07 347.841 309.48 347.171 309.09Z" fill="#E9EAF2"/>
<path d="M318.141 302.89L233.611 254.09C233.24 253.824 232.936 253.474 232.725 253.07C232.513 252.665 232.398 252.217 232.391 251.76V249C232.391 248.1 232.941 247.69 233.611 248.07L318.141 296.87C318.509 297.141 318.81 297.493 319.022 297.899C319.233 298.304 319.349 298.753 319.361 299.21V302C319.361 302.87 318.811 303.28 318.141 302.89Z" fill="#E9EAF2"/>
<path d="M427.18 295.43L374.37 264.94C373.998 264.675 373.693 264.326 373.481 263.921C373.269 263.516 373.156 263.067 373.15 262.61V259.82C373.15 258.92 373.69 258.51 374.37 258.9L427.18 289.39C427.551 289.656 427.855 290.006 428.067 290.41C428.278 290.815 428.393 291.263 428.4 291.72V294.51C428.4 295.41 427.85 295.82 427.18 295.43Z" fill="#E9EAF2"/>
<path d="M427.18 306L374.37 275.5C373.998 275.235 373.693 274.886 373.481 274.481C373.269 274.076 373.156 273.627 373.15 273.17V270.39C373.15 269.49 373.69 269.07 374.37 269.46L427.18 300C427.552 300.265 427.857 300.615 428.069 301.019C428.281 301.424 428.394 301.873 428.4 302.33V305.11C428.4 306 427.85 306.38 427.18 306Z" fill="#E9EAF2"/>
<path d="M413.351 308.57L374.351 286.06C373.978 285.795 373.674 285.446 373.462 285.041C373.249 284.636 373.136 284.187 373.131 283.73V281C373.131 280.1 373.671 279.69 374.351 280.08L413.351 302.58C413.722 302.846 414.026 303.195 414.238 303.6C414.45 304.005 414.564 304.453 414.571 304.91V307.7C414.571 308.55 414.001 309 413.351 308.57Z" fill="#E9EAF2"/>
<path d="M426 363.31L375.63 334.23C374.888 333.698 374.281 332.999 373.857 332.19C373.433 331.38 373.205 330.483 373.19 329.57V297.06C373.19 295.27 374.28 294.44 375.63 295.22L426 324.3C426.741 324.841 427.344 325.548 427.761 326.364C428.177 327.18 428.397 328.083 428.4 329V361.51C428.4 363.26 427.31 364.09 426 363.31Z" fill="#E9EAF2"/>
<path d="M427.18 376.83L374.37 346.34C373.998 346.075 373.693 345.726 373.481 345.321C373.269 344.916 373.156 344.467 373.15 344.01V341.23C373.15 340.33 373.69 339.91 374.37 340.3L427.18 370.79C427.549 371.061 427.85 371.413 428.062 371.819C428.273 372.224 428.389 372.673 428.4 373.13V375.91C428.4 376.81 427.85 377.22 427.18 376.83Z" fill="#E9EAF2"/>
<path d="M233.582 115.736C235.414 114.678 235.412 111.246 233.579 108.07C231.745 104.895 228.774 103.177 226.942 104.235C225.11 105.293 225.111 108.725 226.945 111.9C228.779 115.076 231.75 116.794 233.582 115.736Z" fill="#DADCE5"/>
<path d="M341.68 176.35L323.14 165.65C322.954 165.516 322.803 165.34 322.697 165.137C322.591 164.934 322.534 164.709 322.53 164.48V162C322.53 161.55 322.8 161.34 323.14 161.54L341.68 172.24C341.867 172.371 342.02 172.544 342.126 172.746C342.232 172.948 342.288 173.172 342.29 173.4V175.86C342.29 176.34 342 176.55 341.68 176.35Z" fill="#DADCE5"/>
<path d="M371.68 193.68L353.14 183C352.955 182.868 352.804 182.694 352.698 182.492C352.592 182.291 352.535 182.068 352.53 181.84V179.38C352.53 178.93 352.81 178.72 353.14 178.92L371.68 189.62C371.866 189.754 372.018 189.93 372.124 190.133C372.23 190.336 372.287 190.561 372.29 190.79V193.25C372.29 193.66 372 193.87 371.68 193.68Z" fill="#DADCE5"/>
<path d="M401.201 210.72L382.661 200C382.474 199.869 382.321 199.696 382.215 199.494C382.109 199.292 382.053 199.068 382.051 198.84V196.38C382.051 195.93 382.321 195.73 382.661 195.92L401.201 206.62C401.387 206.754 401.539 206.93 401.644 207.133C401.75 207.336 401.807 207.561 401.811 207.79V210.25C401.811 210.71 401.541 210.91 401.201 210.72Z" fill="#DADCE5"/>
<path d="M431.201 228L412.671 217.3C412.485 217.166 412.333 216.99 412.227 216.787C412.121 216.584 412.064 216.359 412.061 216.13V213.67C412.061 213.22 412.331 213.02 412.671 213.21L431.201 224C431.387 224.131 431.54 224.304 431.646 224.506C431.752 224.708 431.809 224.932 431.811 225.16V227.62C431.811 228 431.541 228.24 431.201 228Z" fill="#DADCE5"/>
<path d="M390.281 246.91L386.741 237.8L380.311 246.96L387.371 251.04L393.181 254.39L406.131 261.87L396.751 237.7L390.281 246.91Z" fill="#DADCE5"/>
<path d="M421.013 253.516C422.67 252.563 422.678 249.466 421.029 246.597C419.38 243.729 416.7 242.175 415.042 243.128C413.385 244.081 413.377 247.179 415.026 250.047C416.675 252.916 419.355 254.469 421.013 253.516Z" fill="#DADCE5"/>
<path d="M390.64 329.51L387.11 320.4L380.67 329.56L387.74 333.64L393.55 336.99L406.5 344.47L397.12 320.3L390.64 329.51Z" fill="#DADCE5"/>
<path d="M419.728 335.118C421.378 334.165 421.38 331.078 419.731 328.223C418.083 325.367 415.408 323.825 413.758 324.778C412.108 325.73 412.107 328.817 413.756 331.673C415.404 334.528 418.078 336.071 419.728 335.118Z" fill="#DADCE5"/>
<path d="M271.68 205.33L267 224.07V208.03L271.68 205.33Z" fill="#232733"/>
<path d="M217.17 173.56L212.49 192.31V176.27L217.17 173.56Z" fill="#232733"/>
<path d="M294.14 289.83L182.72 225.5C182.055 225.023 181.511 224.396 181.132 223.67C180.754 222.944 180.551 222.139 180.54 221.32V164.32C180.54 162.71 181.54 161.97 182.72 162.67L294.14 227C294.807 227.474 295.353 228.099 295.733 228.823C296.114 229.548 296.318 230.352 296.33 231.17V288.22C296.33 289.79 295.35 290.53 294.14 289.83Z" fill="#E9EAF2"/>
<path d="M213.73 223L207.69 207.43L196.69 223.08L208.77 230.06L218.69 235.79L240.84 248.58L224.8 207.25L213.73 223Z" fill="#0B4294"/>
<path d="M275.953 239.788C278.771 238.162 278.769 232.885 275.949 228.001C273.13 223.118 268.561 220.478 265.743 222.104C262.926 223.731 262.928 229.008 265.748 233.891C268.567 238.775 273.136 241.415 275.953 239.788Z" fill="#0B4294"/>
<path d="M264.95 201.44L264.94 180.06L258.88 175.51V201.44L252.14 205.33L261.91 210.97L271.68 205.33L264.95 201.44Z" fill="#353C4C"/>
<path d="M261.91 210.97L267 224.07V208.94V208.03L261.91 210.97Z" fill="#232733"/>
<path d="M252.14 205.33L256.47 217.91L267 224.07L261.91 210.97L252.14 205.33Z" fill="#2B303F"/>
<path d="M210.43 169.68V143.74H204.37V169.67L197.63 173.56L207.4 179.21L217.17 173.56L210.43 169.68Z" fill="#353C4C"/>
<path d="M207.4 179.21L212.49 192.31V177.18V176.27L207.4 179.21Z" fill="#232733"/>
<path d="M197.63 173.56L201.96 186.14L212.49 192.31L207.4 179.21L197.63 173.56Z" fill="#2B303F"/>
<path opacity="0.4" d="M143.77 290.74L83.4097 255.72L10.6797 297.71L75.7497 335.45L148.49 293.46V288.02L143.77 290.74Z" fill="#D6D8E5"/>
<path d="M151.43 286.02L83.4097 246.75L15.3897 286.02L10.6797 283.3V288.74L83.4097 330.74L156.14 288.74V283.3L151.43 286.02Z" fill="#B1B4C4"/>
<path d="M83.4097 325.29L10.6797 283.3L83.4097 241.31L156.14 283.3L83.4097 325.29Z" fill="#E7E9F2"/>
<path d="M83.1797 267.75L87.9297 265.01V62.2L83.1797 64.94V267.75Z" fill="#B1B4C4"/>
<path d="M83.5596 147.69L116.77 200.25L121.52 198.31L87.9296 145.23L83.5596 147.69Z" fill="#B1B4C4"/>
<path d="M83.3604 157.04L116.59 209.86V199.98L83.3604 147.35V157.04Z" fill="#D6D8E5"/>
<path d="M78.6104 265.01L83.3604 267.75V64.94L78.6104 62.2V265.01Z" fill="#D6D8E5"/>
<path d="M116.59 286.94L121.34 289.68V86.87L116.59 84.13V286.94Z" fill="#D6D8E5"/>
<path d="M121.16 289.68L125.91 286.94V84.13L121.16 86.87V289.68Z" fill="#B1B4C4"/>
<path d="M83.3604 253.13L116.59 213.34V203.8L83.3604 243.65V253.13Z" fill="#D6D8E5"/>
<path d="M83.3604 253.13L87.9304 250.63L116.59 216.08V212.6L83.3604 253.13Z" fill="#B1B4C4"/>
<path d="M83.3604 147.69L116.59 107.9V98.36L83.3604 138.21V147.69Z" fill="#D6D8E5"/>
<path d="M83.3604 147.69L87.9304 145.18L116.59 110.64V107.16L83.3604 147.69Z" fill="#B1B4C4"/>
<path d="M45.4805 289.65L50.2305 286.91V84.1L45.4805 86.84V289.65Z" fill="#B1B4C4"/>
<path d="M45.8604 169.59L79.0704 222.14L83.8204 220.21L50.2304 167.13L45.8604 169.59Z" fill="#B1B4C4"/>
<path d="M45.6602 178.94L78.8902 231.75V221.88L45.6602 169.24V178.94Z" fill="#D6D8E5"/>
<path d="M40.9199 286.91L45.6599 289.65V86.84L40.9199 84.1V286.91Z" fill="#D6D8E5"/>
<path d="M78.8896 308.83L83.6396 311.57V108.77L78.8896 106.02V308.83Z" fill="#D6D8E5"/>
<path d="M83.46 311.57L88.21 308.83V106.02L83.46 108.77V311.57Z" fill="#B1B4C4"/>
<path d="M45.6602 275.03L78.8902 235.24V225.69L45.6602 265.55V275.03Z" fill="#D6D8E5"/>
<path d="M45.6602 275.03L50.2302 272.52L78.8902 237.98V234.49L45.6602 275.03Z" fill="#B1B4C4"/>
<path d="M45.6602 169.59L78.8902 129.8V120.25L45.6602 160.1V169.59Z" fill="#D6D8E5"/>
<path d="M45.6602 169.59L50.2302 167.08L78.8902 132.53V129.05L45.6602 169.59Z" fill="#B1B4C4"/>
<path d="M83.6404 119.04L34.6104 90.73L83.6404 62.43L132.67 90.73L83.6404 119.04Z" fill="#F7DC6B"/>
<path d="M79.9897 37.91L21.8597 71.47L5.21973 61.86L63.3497 28.3L79.9897 37.91Z" fill="#353C4C"/>
<path d="M5.21973 75.32V61.86L21.8597 71.47V84.93L5.21973 75.32Z" fill="#2B303F"/>
<path d="M21.8604 84.93L79.9903 51.37V37.91L21.8604 71.47V83.62" fill="#232733"/>
<path d="M79.9897 22.81L21.8597 56.37L5.21973 46.76L63.3497 13.2L79.9897 22.81Z" fill="#353C4C"/>
<path d="M5.21973 60.23V46.76L21.8597 56.37V69.84L5.21973 60.23Z" fill="#2B303F"/>
<path d="M21.8604 69.84L79.9903 36.28V22.81L21.8604 56.37V68.53" fill="#232733"/>
<path d="M36.05 64.55L0 43.87V36.33L36.05 56.88V64.55Z" fill="#D6D8E5"/>
<path d="M88.21 86.82L0 36.33L6.53 32.56L94.74 83.05L88.21 86.82Z" fill="#E7E9F2"/>
<path d="M75.7099 52.63L30.4199 26.43V18.88L75.7099 43.15V52.63Z" fill="#D6D8E5"/>
<path d="M110.06 64.09L30.4199 18.89L36.9499 15.12L116.59 60.32L110.06 64.09Z" fill="#E7E9F2"/>
<path d="M54.5498 32.8V40.34L57.6498 62.05L62.2498 64.91L54.5498 32.8Z" fill="#D6D8E5"/>
<path d="M68.1798 68.13L62.2198 37.23L54.5498 32.8L59.1998 63.25L68.1798 68.13Z" fill="#E7E9F2"/>
<path d="M54.55 40.34L30.76 46.61L18.54 39.55L53.51 32.18L54.55 32.8V40.34Z" fill="#B1B4C4"/>
<path d="M54.5498 32.8L21.4198 41.22L14.2998 37.11L47.6898 28.58L54.5498 32.8Z" fill="#E7E9F2"/>
<path d="M83.6404 56.62L34.6104 28.31L83.6404 0L132.67 28.31L83.6404 56.62Z" fill="#E7E9F2"/>
<path d="M34.6104 115.73V28.31L83.6404 56.62V144.04L34.6104 115.73Z" fill="#D6D8E5"/>
<path d="M132.67 28.31V115.73L83.6396 144.04V56.61L132.67 28.31Z" fill="#B1B4C4"/>
<path d="M83.6404 87.07L55.4904 70.82L46.4404 42.02L83.6404 63.5V87.07Z" fill="#0B4294"/>
<path d="M132.67 35.19V58.76L83.6396 87.08V63.51L132.67 35.19Z" fill="#0B4294"/>
<path d="M302.27 219.27L90.1201 96.78V89.24L302.27 211.73V219.27Z" fill="#D6D8E5"/>
<path d="M302.27 211.73L90.1201 89.25L96.6501 85.48L308.8 207.96L302.27 211.73Z" fill="#E7E9F2"/>
<path d="M332.69 201.83L120.54 79.34V71.8L332.69 194.29V201.83Z" fill="#D6D8E5"/>
<path d="M332.69 194.29L120.54 71.8L127.07 68.03L339.22 190.52L332.69 194.29Z" fill="#E7E9F2"/>
<path d="M339.22 198.08L302.27 219.27V211.72L339.22 190.54V198.08Z" fill="#B1B4C4"/>
<path d="M339.22 190.54L302.29 211.73L296.76 208.54L333.69 187.35L339.22 190.54Z" fill="#E7E9F2"/>
<path d="M306.1 186.46L282.3 192.73L270.08 185.67L305.05 178.3L306.1 178.92V186.46Z" fill="#B1B4C4"/>
<path d="M306.1 178.92L272.97 187.34L265.85 183.22L299.23 174.7L306.1 178.92Z" fill="#E7E9F2"/>
<path d="M252.41 147.96V155.5L255.51 177.21L260.11 180.06L252.41 147.96Z" fill="#D6D8E5"/>
<path d="M266.04 183.29L260.08 152.39L252.41 147.96L257.07 178.41L266.04 183.29Z" fill="#E7E9F2"/>
<path d="M252.41 155.5L228.62 161.77L216.4 154.71L251.37 147.34L252.41 147.96V155.5Z" fill="#B1B4C4"/>
<path d="M252.41 147.96L219.29 156.38L212.17 152.27L245.55 143.74L252.41 147.96Z" fill="#E7E9F2"/>
<path d="M198.54 116.83V124.37L201.63 146.08L206.24 148.94L198.54 116.83Z" fill="#D6D8E5"/>
<path d="M212.17 152.16L206.21 121.26L198.54 116.83L203.19 147.28L212.17 152.16Z" fill="#E7E9F2"/>
<path d="M198.54 124.37L174.75 130.64L162.53 123.58L197.5 116.21L198.54 116.83V124.37Z" fill="#B1B4C4"/>
<path d="M198.54 116.83L165.41 125.25L158.29 121.14L191.68 112.61L198.54 116.83Z" fill="#E7E9F2"/>
<path d="M144.67 85.72V93.26L147.76 114.97L152.37 117.82L144.67 85.72Z" fill="#D6D8E5"/>
<path d="M158.29 121.05L152.34 90.15L144.67 85.72L149.32 116.17L158.29 121.05Z" fill="#E7E9F2"/>
<path d="M144.67 93.26L120.88 99.53L108.66 92.47L143.63 85.1L144.67 85.72V93.26Z" fill="#B1B4C4"/>
<path d="M144.67 85.72L111.54 94.14L104.42 90.03L137.8 81.5L144.67 85.72Z" fill="#E7E9F2"/>
<path opacity="0.4" d="M94.1696 500L66.3496 484.08L107.99 460.25L135.81 476.16L94.1696 500Z" fill="#D6D8E5"/>
<path d="M94.75 467.91L71.71 454.6L94.75 441.3L117.79 454.61L94.75 467.91Z" fill="#D6D8E5"/>
<path d="M94.75 494.52L71.71 481.21V454.6L94.75 467.91V494.52Z" fill="#B1B6C4"/>
<path d="M117.79 481.21L94.75 494.52V467.91L117.79 454.6V481.21Z" fill="#C4C7D6"/>
<path d="M125.721 472.84C127.715 473.393 129.847 473.134 131.651 472.12C133.081 472.12 140.841 468.84 141.901 471.63C142.821 474.08 139.461 476.34 137.661 476.77C133.741 477.77 130.841 479.68 129.271 480.01C128.101 480.26 126.581 480.42 125.641 479.5C124.521 478.39 124.621 474.3 125.721 472.84Z" fill="#072B62"/>
<path d="M129.27 479.33C130.84 479 133.74 477.05 137.66 476.1C139.17 475.73 141.76 474.1 142.02 472.1C142.37 474.35 139.34 476.35 137.66 476.75C133.74 477.75 130.84 479.66 129.27 479.99C128.1 480.24 126.58 480.4 125.64 479.48C125.403 479.208 125.229 478.887 125.13 478.54C125.71 478.986 126.387 479.289 127.106 479.426C127.825 479.563 128.566 479.53 129.27 479.33Z" fill="#0B4294"/>
<path d="M111.72 465.39C113.718 465.944 115.853 465.685 117.66 464.67C119.09 464.67 126.85 461.39 127.9 464.18C128.83 466.63 125.47 468.89 123.67 469.32C119.75 470.27 116.85 472.23 115.27 472.56C114.1 472.81 112.58 472.97 111.65 472.05C110.53 470.94 110.62 466.85 111.72 465.39Z" fill="#072B62"/>
<path d="M115.27 471.88C116.85 471.55 119.75 469.6 123.67 468.65C125.17 468.28 127.77 466.65 128.03 464.65C128.38 466.9 125.34 468.9 123.67 469.3C119.75 470.25 116.85 472.21 115.27 472.54C114.1 472.79 112.58 472.95 111.65 472.03C111.406 471.761 111.228 471.439 111.13 471.09C111.711 471.535 112.388 471.838 113.106 471.975C113.825 472.112 114.566 472.08 115.27 471.88Z" fill="#0B4294"/>
<path d="M89.9298 455.73C95.9298 458.39 101.69 458.81 106.36 456.3L111.18 453.52C111.47 459.74 111.74 465.72 111.74 465.72C111.74 465.72 115.44 468.52 118.32 466.02C118.32 466.02 118.92 457.29 119.53 448.7L124.59 445.78C124.468 446.237 124.401 446.707 124.39 447.18C124.39 448.82 125.56 473.08 125.56 473.08C125.56 473.08 129.29 475.3 132.17 472.8C132.17 472.8 134.11 444.68 134.55 440.19C135.05 435.14 129.44 432.65 125.9 433.95C125.07 434.24 123.04 435 120.47 435.95C120.58 434.54 120.67 433.45 120.73 432.83C121.24 427.77 115.63 425.28 112.08 426.58C108.84 427.76 86.9998 436 86.9998 436C87.1359 438.096 87.393 440.183 87.7698 442.25L79.1498 441.53C78.6298 449.6 83.8898 453.07 89.9298 455.73ZM105 441.73L110.77 438.4C110.668 438.806 110.604 439.222 110.58 439.64L105 441.73Z" fill="#0B4294"/>
<path d="M74.4199 416.87C74.4199 416.87 75.1299 427.6 76.5399 429.15C77.9499 430.7 82.7099 431.75 82.7099 431.75L86.3699 437.75C86.3699 437.75 82.9999 418.6 82.2999 418.14C81.5999 417.68 74.4199 416.87 74.4199 416.87Z" fill="#FFCEA9"/>
<path d="M81.4702 405C80.5794 404.586 79.5672 404.513 78.6266 404.797C77.686 405.081 76.8828 405.702 76.3702 406.54C75.0202 408.78 73.6202 416.44 73.4902 417.75C73.4902 417.75 75.3802 420.37 78.2202 419.93L81.4702 405Z" fill="#EDEDED"/>
<path d="M82.7603 405.09C84.6203 405.18 86.0003 405.66 86.2303 405.09C86.4292 404.136 86.5695 403.171 86.6503 402.2C86.4403 401.66 86.2503 401.08 86.2503 401.08C83.9303 399.65 83.1903 397.08 82.8803 394.2C82.3603 389.2 85.0703 384.8 90.0803 384.28C94.7903 383.79 98.2503 387.1 99.1803 391.64C99.6703 393.89 100.67 398.13 99.3303 401.82C98.5803 403.88 97.6103 405.52 96.6503 405.82C95.7161 405.793 94.7845 405.709 93.8603 405.57C93.8603 405.57 93.6103 406.96 93.4403 407.85C93.2703 408.74 93.3403 409.22 95.1103 410.31C96.8803 411.4 92.4203 413.66 89.5103 413.44C86.6003 413.22 83.3103 411.44 82.4003 409.57C81.4003 407.51 81.4903 405 82.7603 405.09Z" fill="#FFCEA9"/>
<path d="M129.74 437.91C129.742 438.175 129.674 438.436 129.542 438.666C129.41 438.896 129.22 439.087 128.99 439.22L114.86 447.38C114.631 447.513 114.37 447.582 114.105 447.582C113.84 447.582 113.58 447.513 113.35 447.38L93.5303 435.94C93.3021 435.808 93.1127 435.619 92.981 435.391C92.8493 435.162 92.7801 434.903 92.7803 434.64V434.52L129.74 437.91Z" fill="#E5E5E5"/>
<path d="M129 439.22L114.87 447.38C114.639 447.513 114.377 447.583 114.11 447.58V437.91H129.75C129.752 438.175 129.684 438.436 129.552 438.666C129.42 438.896 129.23 439.087 129 439.22Z" fill="#E5E5E5"/>
<path d="M114.63 446.64C114.469 446.733 114.286 446.782 114.1 446.782C113.914 446.782 113.731 446.733 113.57 446.64L93.0004 434.75C92.7304 434.6 92.7304 434.35 93.0004 434.2L108.16 425.44L129.76 437.91L114.63 446.64Z" fill="#F4F4F4"/>
<path d="M101.44 437.91L101.54 437.97L108.14 441.78L111.76 439.69L111.87 439.63L105.16 435.76L101.44 437.91Z" fill="#BFBFBF"/>
<path d="M101.54 437.97L108.14 441.78L111.76 439.69L105.16 435.88L101.54 437.97Z" fill="#E5E5E5"/>
<path d="M124.141 438.53L125.141 439.08C125.187 439.102 125.239 439.114 125.291 439.114C125.343 439.114 125.394 439.102 125.441 439.08L126.351 438.55C126.441 438.5 126.451 438.42 126.351 438.38L125.351 437.83C125.304 437.805 125.253 437.793 125.201 437.793C125.148 437.793 125.097 437.805 125.051 437.83L124.141 438.35C124.081 438.41 124.071 438.48 124.141 438.53Z" fill="#072B62"/>
<path d="M122.8 437.75L123.8 438.3C123.847 438.325 123.898 438.337 123.95 438.337C124.003 438.337 124.054 438.325 124.1 438.3L125.01 437.77C125.1 437.72 125.11 437.64 125.01 437.6L124.01 437.05C123.964 437.025 123.913 437.013 123.86 437.013C123.808 437.013 123.757 437.025 123.71 437.05L122.8 437.58C122.73 437.63 122.72 437.71 122.8 437.75Z" fill="#072B62"/>
<path d="M121.45 437L122.45 437.55C122.496 437.575 122.548 437.587 122.6 437.587C122.652 437.587 122.704 437.575 122.75 437.55L123.66 437.03C123.75 436.97 123.76 436.9 123.66 436.85L122.71 436.3C122.663 436.278 122.612 436.266 122.56 436.266C122.508 436.266 122.457 436.278 122.41 436.3L121.5 436.83C121.38 436.85 121.37 436.93 121.45 437Z" fill="#072B62"/>
<path d="M120.1 436.2L121.1 436.75C121.149 436.772 121.202 436.783 121.255 436.783C121.309 436.783 121.362 436.772 121.41 436.75L122.32 436.23C122.41 436.23 122.42 436.1 122.32 436.05L121.32 435.5C121.272 435.475 121.219 435.463 121.165 435.463C121.111 435.463 121.058 435.475 121.01 435.5L120.1 436.02C120 436.07 120 436.15 120.1 436.2Z" fill="#072B62"/>
<path d="M118.75 435.42L119.75 435.97C119.796 435.995 119.848 436.007 119.9 436.007C119.952 436.007 120.004 435.995 120.05 435.97L120.96 435.45C121.05 435.4 121.06 435.32 120.96 435.28L119.96 434.73C119.912 434.705 119.859 434.693 119.805 434.693C119.751 434.693 119.698 434.705 119.65 434.73L118.75 435.25C118.69 435.29 118.68 435.37 118.75 435.42Z" fill="#072B62"/>
<path d="M117.41 434.64L118.41 435.19C118.457 435.212 118.508 435.224 118.56 435.224C118.612 435.224 118.663 435.212 118.71 435.19L119.62 434.66C119.71 434.66 119.72 434.53 119.62 434.49L118.62 433.94C118.574 433.915 118.522 433.903 118.47 433.903C118.418 433.903 118.366 433.915 118.32 433.94L117.41 434.46C117.34 434.52 117.33 434.59 117.41 434.64Z" fill="#072B62"/>
<path d="M116.061 433.86L117.061 434.41C117.107 434.435 117.158 434.447 117.211 434.447C117.263 434.447 117.314 434.435 117.361 434.41L118.271 433.88C118.361 433.83 118.371 433.75 118.271 433.71L117.321 433.16C117.274 433.135 117.223 433.123 117.171 433.123C117.118 433.123 117.067 433.135 117.021 433.16L116.111 433.69C116.001 433.74 116.001 433.82 116.061 433.86Z" fill="#072B62"/>
<path d="M114.711 433.08L115.711 433.63C115.759 433.655 115.812 433.667 115.866 433.667C115.92 433.667 115.973 433.655 116.021 433.63L116.931 433.11C117.021 433.05 117.021 432.98 116.931 432.93L115.931 432.38C115.882 432.358 115.829 432.346 115.776 432.346C115.722 432.346 115.669 432.358 115.621 432.38L114.711 432.91C114.641 433 114.631 433 114.711 433.08Z" fill="#072B62"/>
<path d="M113.36 432.31L114.36 432.86C114.407 432.882 114.459 432.893 114.51 432.893C114.562 432.893 114.613 432.882 114.66 432.86L115.57 432.34C115.66 432.29 115.67 432.21 115.57 432.16L114.57 431.61C114.522 431.585 114.469 431.573 114.415 431.573C114.361 431.573 114.308 431.585 114.26 431.61L113.36 432.13C113.3 432.18 113.29 432.26 113.36 432.31Z" fill="#072B62"/>
<path d="M112 431.53L113 432.08C113.046 432.105 113.098 432.117 113.15 432.117C113.203 432.117 113.254 432.105 113.3 432.08L114.21 431.56C114.3 431.51 114.31 431.43 114.21 431.39L113.21 430.84C113.164 430.815 113.113 430.803 113.06 430.803C113.008 430.803 112.957 430.815 112.91 430.84L112 431.36C112 431.4 111.94 431.48 112 431.53Z" fill="#072B62"/>
<path d="M110.67 430.75L111.67 431.3C111.717 431.322 111.768 431.334 111.82 431.334C111.872 431.334 111.923 431.322 111.97 431.3L112.88 430.77C112.97 430.72 112.98 430.64 112.88 430.6L111.93 430.05C111.884 430.025 111.832 430.013 111.78 430.013C111.728 430.013 111.676 430.025 111.63 430.05L110.72 430.57C110.6 430.63 110.59 430.7 110.67 430.75Z" fill="#072B62"/>
<path d="M109.32 430L110.32 430.55C110.368 430.575 110.421 430.587 110.475 430.587C110.529 430.587 110.582 430.575 110.63 430.55L111.54 430.02C111.63 429.97 111.63 429.89 111.54 429.85L110.54 429.3C110.492 429.275 110.439 429.263 110.385 429.263C110.331 429.263 110.278 429.275 110.23 429.3L109.32 429.83C109.25 429.85 109.24 429.93 109.32 430Z" fill="#072B62"/>
<path d="M108 429.19L109 429.74C109.046 429.765 109.098 429.777 109.15 429.777C109.202 429.777 109.254 429.765 109.3 429.74L110.21 429.22C110.3 429.16 110.31 429.09 110.21 429.04L109.21 428.49C109.161 428.468 109.109 428.456 109.055 428.456C109.001 428.456 108.949 428.468 108.9 428.49L108 429.02C107.91 429.07 107.9 429.15 108 429.19Z" fill="#072B62"/>
<path d="M106 428L107.6 428.93C107.647 428.952 107.698 428.964 107.75 428.964C107.802 428.964 107.853 428.952 107.9 428.93L108.81 428.41C108.9 428.36 108.91 428.28 108.81 428.23L107.21 427.31C107.164 427.285 107.112 427.273 107.06 427.273C107.008 427.273 106.956 427.285 106.91 427.31L106 427.84C105.91 427.92 105.9 428 106 428Z" fill="#072B62"/>
<path d="M120.84 438.13L121.84 438.68C121.887 438.702 121.939 438.714 121.99 438.714C122.042 438.714 122.094 438.702 122.14 438.68L123.05 438.15C123.14 438.1 123.15 438.02 123.05 437.98L122.05 437.43C122.004 437.405 121.953 437.393 121.9 437.393C121.848 437.393 121.797 437.405 121.75 437.43L120.84 437.95C120.77 438 120.76 438.08 120.84 438.13Z" fill="#072B62"/>
<path d="M119.49 437.35L120.49 437.9C120.539 437.922 120.591 437.934 120.645 437.934C120.698 437.934 120.751 437.922 120.8 437.9L121.7 437.37C121.79 437.32 121.8 437.24 121.7 437.2L120.7 436.65C120.654 436.625 120.602 436.613 120.55 436.613C120.498 436.613 120.446 436.625 120.4 436.65L119.49 437.18C119.42 437.23 119.41 437.31 119.49 437.35Z" fill="#072B62"/>
<path d="M118.14 436.57L119.14 437.12C119.188 437.145 119.241 437.157 119.295 437.157C119.349 437.157 119.402 437.145 119.45 437.12L120.35 436.59C120.44 436.54 120.45 436.46 120.35 436.42L119.35 435.87C119.304 435.845 119.253 435.833 119.2 435.833C119.148 435.833 119.096 435.845 119.05 435.87L118.14 436.4C118.07 436.45 118.06 436.53 118.14 436.57Z" fill="#072B62"/>
<path d="M116.791 435.79L117.741 436.34C117.789 436.365 117.842 436.377 117.896 436.377C117.95 436.377 118.003 436.365 118.051 436.34L118.951 435.81C119.041 435.76 119.051 435.68 118.951 435.64L117.951 435.09C117.904 435.065 117.853 435.053 117.801 435.053C117.748 435.053 117.697 435.065 117.651 435.09L116.741 435.62C116.721 435.67 116.711 435.75 116.791 435.79Z" fill="#072B62"/>
<path d="M115.45 435L116.45 435.55C116.498 435.572 116.551 435.584 116.605 435.584C116.658 435.584 116.711 435.572 116.76 435.55L117.66 435.02C117.75 435.02 117.76 434.89 117.66 434.85L116.66 434.3C116.614 434.275 116.562 434.263 116.51 434.263C116.458 434.263 116.406 434.275 116.36 434.3L115.45 434.82C115.38 434.9 115.37 435 115.45 435Z" fill="#072B62"/>
<path d="M114.1 434.24L115.1 434.79C115.149 434.812 115.202 434.824 115.255 434.824C115.309 434.824 115.362 434.812 115.41 434.79L116.31 434.26C116.4 434.21 116.41 434.13 116.31 434.09L115.31 433.54C115.264 433.515 115.213 433.503 115.16 433.503C115.108 433.503 115.057 433.515 115.01 433.54L114.1 434.06C114 434.12 114 434.19 114.1 434.24Z" fill="#072B62"/>
<path d="M112.751 433.46L113.751 434.01C113.799 434.032 113.852 434.044 113.906 434.044C113.959 434.044 114.012 434.032 114.061 434.01L114.961 433.48C115.051 433.43 115.061 433.35 114.961 433.31L113.961 432.76C113.914 432.735 113.863 432.723 113.811 432.723C113.758 432.723 113.707 432.735 113.661 432.76L112.751 433.28C112.681 433.34 112.671 433.41 112.751 433.46Z" fill="#072B62"/>
<path d="M111.4 432.68L112.35 433.23C112.399 433.252 112.451 433.264 112.505 433.264C112.558 433.264 112.611 433.252 112.66 433.23L113.57 432.7C113.65 432.65 113.66 432.57 113.57 432.53L112.57 431.98C112.524 431.955 112.472 431.943 112.42 431.943C112.368 431.943 112.316 431.955 112.27 431.98L111.36 432.51C111.33 432.56 111.32 432.64 111.4 432.68Z" fill="#072B62"/>
<path d="M110.05 431.9L111.05 432.45C111.098 432.475 111.152 432.487 111.205 432.487C111.259 432.487 111.312 432.475 111.36 432.45L112.27 431.92C112.35 431.87 112.36 431.79 112.27 431.75L111.32 431.2C111.272 431.175 111.219 431.163 111.165 431.163C111.112 431.163 111.058 431.175 111.01 431.2L110.1 431.73C110 431.78 110 431.86 110.05 431.9Z" fill="#072B62"/>
<path d="M108.7 431.12L109.7 431.67C109.748 431.695 109.801 431.707 109.855 431.707C109.909 431.707 109.962 431.695 110.01 431.67L110.92 431.14C111.01 431.09 111.01 431.01 110.92 430.97L109.92 430.42C109.871 430.398 109.818 430.386 109.765 430.386C109.711 430.386 109.658 430.398 109.61 430.42L108.7 430.95C108.63 431 108.62 431.08 108.7 431.12Z" fill="#072B62"/>
<path d="M107.35 430.34L108.35 430.89C108.398 430.915 108.451 430.927 108.505 430.927C108.559 430.927 108.612 430.915 108.66 430.89L109.57 430.37C109.66 430.31 109.66 430.23 109.57 430.19L108.57 429.64C108.522 429.618 108.469 429.606 108.415 429.606C108.362 429.606 108.309 429.618 108.26 429.64L107.35 430.17C107.28 430.22 107.27 430.3 107.35 430.34Z" fill="#072B62"/>
<path d="M106.001 429.56L107.001 430.11C107.049 430.135 107.102 430.147 107.156 430.147C107.21 430.147 107.263 430.135 107.311 430.11L108.221 429.59C108.311 429.53 108.321 429.46 108.221 429.41L107.221 428.86C107.172 428.838 107.119 428.826 107.066 428.826C107.012 428.826 106.959 428.838 106.911 428.86L106.001 429.39C105.931 429.44 105.921 429.52 106.001 429.56Z" fill="#072B62"/>
<path d="M122.19 438.91L123.79 439.83C123.836 439.855 123.888 439.867 123.94 439.867C123.992 439.867 124.044 439.855 124.09 439.83L125 439.31C125.09 439.25 125.1 439.18 125 439.13L123.4 438.21C123.354 438.185 123.302 438.173 123.25 438.173C123.198 438.173 123.146 438.185 123.1 438.21L122.19 438.73C122.12 438.79 122.11 438.86 122.19 438.91Z" fill="#072B62"/>
<path d="M105.89 428.08L106.89 428.63C106.912 428.63 106.932 428.638 106.947 428.653C106.962 428.668 106.97 428.689 106.97 428.71C106.97 428.731 106.962 428.752 106.947 428.767C106.932 428.782 106.912 428.79 106.89 428.79L105.89 429.35C105.846 429.37 105.799 429.38 105.75 429.38C105.702 429.38 105.654 429.37 105.61 429.35L105.53 429.3C105.49 429.28 105.445 429.27 105.4 429.27C105.355 429.27 105.311 429.28 105.27 429.3L104.27 429.89C104.226 429.91 104.179 429.92 104.13 429.92C104.082 429.92 104.034 429.91 103.99 429.89L103.38 429.54C103.3 429.49 103.3 429.42 103.38 429.38L104.38 428.83L104.58 428.72L104.72 428.63L104.86 428.55L105.68 428.08C105.748 428.053 105.823 428.053 105.89 428.08Z" fill="#072B62"/>
<path d="M118.92 441.54L119.92 442.09C119.966 442.115 120.018 442.127 120.07 442.127C120.122 442.127 120.174 442.115 120.22 442.09L121.13 441.57C121.22 441.51 121.23 441.44 121.13 441.39L120.18 440.84C120.133 440.818 120.082 440.806 120.03 440.806C119.978 440.806 119.927 440.818 119.88 440.84L118.97 441.37C118.85 441.42 118.84 441.5 118.92 441.54Z" fill="#072B62"/>
<path d="M117.57 440.77L118.57 441.32C118.618 441.345 118.671 441.357 118.725 441.357C118.779 441.357 118.832 441.345 118.88 441.32L119.78 440.8C119.87 440.8 119.88 440.67 119.78 440.62L118.78 440.08C118.734 440.055 118.682 440.043 118.63 440.043C118.578 440.043 118.526 440.055 118.48 440.08L117.57 440.6C117.5 440.64 117.49 440.72 117.57 440.77Z" fill="#072B62"/>
<path d="M116.23 440L117.23 440.55C117.276 440.575 117.328 440.587 117.38 440.587C117.432 440.587 117.484 440.575 117.53 440.55L118.44 440.02C118.53 439.97 118.54 439.89 118.44 439.85L117.44 439.3C117.394 439.275 117.342 439.263 117.29 439.263C117.238 439.263 117.186 439.275 117.14 439.3L116.23 439.83C116.16 439.87 116.15 440 116.23 440Z" fill="#072B62"/>
<path d="M104.78 433.38L105.78 433.93C105.826 433.955 105.878 433.967 105.93 433.967C105.983 433.967 106.034 433.955 106.08 433.93L106.99 433.41C107.08 433.41 107.09 433.28 106.99 433.23L105.99 432.68C105.942 432.655 105.889 432.643 105.835 432.643C105.781 432.643 105.728 432.655 105.68 432.68L104.78 433.2C104.72 433.26 104.71 433.34 104.78 433.38Z" fill="#072B62"/>
<path d="M103.44 432.61L104.44 433.16C104.489 433.182 104.542 433.194 104.595 433.194C104.649 433.194 104.702 433.182 104.75 433.16L105.65 432.63C105.74 432.58 105.75 432.5 105.65 432.46L104.65 431.91C104.604 431.885 104.552 431.873 104.5 431.873C104.448 431.873 104.396 431.885 104.35 431.91L103.44 432.43C103.37 432.49 103.36 432.56 103.44 432.61Z" fill="#072B62"/>
<path d="M102.1 431.83L103.1 432.38C103.147 432.405 103.198 432.417 103.25 432.417C103.303 432.417 103.354 432.405 103.4 432.38L104.31 431.86C104.4 431.8 104.41 431.73 104.31 431.68L103.31 431.13C103.264 431.108 103.212 431.096 103.16 431.096C103.109 431.096 103.057 431.108 103.01 431.13L102.1 431.66C102 431.71 102 431.79 102.1 431.83Z" fill="#072B62"/>
<path d="M100.75 431.06L101.75 431.61C101.796 431.635 101.848 431.647 101.9 431.647C101.952 431.647 102.004 431.635 102.05 431.61L102.96 431.09C103.05 431.04 103.06 430.96 102.96 430.91L101.96 430.37C101.912 430.345 101.859 430.333 101.805 430.333C101.751 430.333 101.698 430.345 101.65 430.37L100.75 430.89C100.69 430.93 100.68 431 100.75 431.06Z" fill="#072B62"/>
<path d="M114.541 439L115.841 439.74C115.887 439.765 115.938 439.777 115.991 439.777C116.043 439.777 116.094 439.765 116.141 439.74L117.051 439.22C117.141 439.17 117.151 439.09 117.051 439.04L115.751 438.29C115.704 438.265 115.653 438.253 115.601 438.253C115.548 438.253 115.497 438.265 115.451 438.29L114.541 438.81C114.471 438.89 114.461 439 114.541 439Z" fill="#072B62"/>
<path d="M106.131 434.16L107.431 434.91C107.477 434.932 107.529 434.944 107.581 434.944C107.632 434.944 107.684 434.932 107.731 434.91L108.641 434.38C108.731 434.33 108.741 434.25 108.641 434.21L107.341 433.46C107.294 433.435 107.243 433.423 107.191 433.423C107.138 433.423 107.087 433.435 107.041 433.46L106.131 433.99C106.061 434 106.051 434.12 106.131 434.16Z" fill="#072B62"/>
<path d="M107.82 435.14L114.15 438.79C114.197 438.812 114.248 438.824 114.3 438.824C114.352 438.824 114.403 438.812 114.45 438.79L115.36 438.26C115.45 438.21 115.46 438.13 115.36 438.09L109.03 434.43C108.984 434.405 108.932 434.393 108.88 434.393C108.828 434.393 108.776 434.405 108.73 434.43L107.82 434.95C107.75 435 107.74 435.09 107.82 435.14Z" fill="#072B62"/>
<path d="M119.17 438.67L120.17 439.22C120.216 439.245 120.268 439.257 120.32 439.257C120.372 439.257 120.424 439.245 120.47 439.22L121.38 438.69C121.47 438.64 121.48 438.56 121.38 438.52L120.43 437.97C120.383 437.948 120.332 437.936 120.28 437.936C120.228 437.936 120.177 437.948 120.13 437.97L119.22 438.5C119.1 438.55 119.09 438.63 119.17 438.67Z" fill="#072B62"/>
<path d="M117.82 437.89L118.82 438.44C118.868 438.465 118.921 438.477 118.975 438.477C119.029 438.477 119.082 438.465 119.13 438.44L120.03 437.92C120.12 437.87 120.13 437.79 120.03 437.74L119.03 437.19C118.984 437.165 118.932 437.153 118.88 437.153C118.828 437.153 118.776 437.165 118.73 437.19L117.82 437.71C117.75 437.77 117.74 437.85 117.82 437.89Z" fill="#072B62"/>
<path d="M116.48 437.12L117.48 437.67C117.526 437.695 117.578 437.707 117.63 437.707C117.682 437.707 117.734 437.695 117.78 437.67L118.69 437.15C118.78 437.1 118.79 437.02 118.69 436.98L117.69 436.43C117.644 436.405 117.592 436.393 117.54 436.393C117.488 436.393 117.436 436.405 117.39 436.43L116.48 436.95C116.41 437 116.4 437.07 116.48 437.12Z" fill="#072B62"/>
<path d="M115.131 436.34L116.131 436.89C116.177 436.915 116.228 436.927 116.281 436.927C116.333 436.927 116.384 436.915 116.431 436.89L117.341 436.36C117.431 436.31 117.441 436.23 117.341 436.19L116.341 435.64C116.294 435.615 116.243 435.603 116.191 435.603C116.138 435.603 116.087 435.615 116.041 435.64L115.131 436.17C115.061 436.22 115.051 436.3 115.131 436.34Z" fill="#072B62"/>
<path d="M113.78 435.56L114.78 436.11C114.827 436.135 114.878 436.147 114.93 436.147C114.983 436.147 115.034 436.135 115.08 436.11L115.99 435.59C116.08 435.53 116.09 435.46 115.99 435.41L114.99 434.86C114.942 434.838 114.889 434.826 114.835 434.826C114.782 434.826 114.729 434.838 114.68 434.86L113.77 435.39C113.72 435.44 113.71 435.52 113.78 435.56Z" fill="#072B62"/>
<path d="M112.44 434.79L113.44 435.34C113.486 435.365 113.538 435.377 113.59 435.377C113.642 435.377 113.694 435.365 113.74 435.34L114.65 434.82C114.74 434.77 114.75 434.69 114.65 434.64L113.65 434.09C113.603 434.068 113.552 434.056 113.5 434.056C113.448 434.056 113.397 434.068 113.35 434.09L112.44 434.61C112.37 434.66 112.36 434.74 112.44 434.79Z" fill="#072B62"/>
<path d="M111.09 434L112.09 434.55C112.139 434.572 112.191 434.584 112.245 434.584C112.298 434.584 112.351 434.572 112.4 434.55L113.3 434.02C113.39 434.02 113.4 433.89 113.3 433.85L112.3 433.3C112.254 433.275 112.202 433.263 112.15 433.263C112.098 433.263 112.046 433.275 112 433.3L111.09 433.82C111 433.89 111 434 111.09 434Z" fill="#072B62"/>
<path d="M109.751 433.23L110.751 433.78C110.797 433.805 110.848 433.817 110.901 433.817C110.953 433.817 111.004 433.805 111.051 433.78L111.961 433.25C112.051 433.2 112.061 433.12 111.961 433.08L110.961 432.53C110.914 432.508 110.863 432.496 110.811 432.496C110.759 432.496 110.708 432.508 110.661 432.53L109.751 433.06C109.681 433.11 109.671 433.19 109.751 433.23Z" fill="#072B62"/>
<path d="M108.4 432.45L109.35 433C109.396 433.025 109.448 433.037 109.5 433.037C109.552 433.037 109.604 433.025 109.65 433L110.56 432.48C110.65 432.43 110.66 432.35 110.56 432.3L109.56 431.75C109.514 431.725 109.462 431.713 109.41 431.713C109.358 431.713 109.306 431.725 109.26 431.75L108.35 432.27C108.33 432.33 108.32 432.41 108.4 432.45Z" fill="#072B62"/>
<path d="M107.05 431.68L108.05 432.23C108.098 432.255 108.152 432.267 108.205 432.267C108.259 432.267 108.312 432.255 108.36 432.23L109.27 431.71C109.36 431.66 109.37 431.58 109.27 431.54L108.32 430.99C108.272 430.965 108.219 430.953 108.165 430.953C108.112 430.953 108.058 430.965 108.01 430.99L107.1 431.51C107 431.55 107 431.63 107.05 431.68Z" fill="#072B62"/>
<path d="M105.711 430.9L106.711 431.45C106.757 431.475 106.808 431.487 106.861 431.487C106.913 431.487 106.964 431.475 107.011 431.45L107.921 430.92C108.011 430.87 108.021 430.79 107.921 430.75L106.921 430.2C106.874 430.175 106.823 430.163 106.771 430.163C106.718 430.163 106.667 430.175 106.621 430.2L105.711 430.73C105.641 430.78 105.631 430.86 105.711 430.9Z" fill="#072B62"/>
<path d="M104.36 430.12L105.36 430.67C105.408 430.695 105.461 430.707 105.515 430.707C105.569 430.707 105.622 430.695 105.67 430.67L106.57 430.15C106.66 430.09 106.67 430.02 106.57 429.97L105.57 429.42C105.523 429.398 105.472 429.386 105.42 429.386C105.368 429.386 105.317 429.398 105.27 429.42L104.36 429.95C104.29 430 104.28 430.08 104.36 430.12Z" fill="#072B62"/>
<path d="M120.511 439.45L122.511 440.59C122.558 440.612 122.609 440.624 122.661 440.624C122.713 440.624 122.764 440.612 122.811 440.59L123.721 440.07C123.811 440.02 123.821 439.94 123.721 439.89L121.721 438.76C121.673 438.735 121.62 438.723 121.566 438.723C121.512 438.723 121.459 438.735 121.411 438.76L120.511 439.28C120.451 439.33 120.441 439.4 120.511 439.45Z" fill="#072B62"/>
<path d="M118.53 439.81L119.53 440.36C119.576 440.385 119.628 440.397 119.68 440.397C119.733 440.397 119.784 440.385 119.83 440.36L120.74 439.83C120.83 439.78 120.84 439.7 120.74 439.66L119.79 439.11C119.743 439.088 119.692 439.076 119.64 439.076C119.588 439.076 119.537 439.088 119.49 439.11L118.58 439.64C118.46 439.69 118.45 439.77 118.53 439.81Z" fill="#072B62"/>
<path d="M117.181 439L118.181 439.55C118.227 439.575 118.278 439.587 118.331 439.587C118.383 439.587 118.434 439.575 118.481 439.55L119.391 439.03C119.481 438.98 119.491 438.9 119.391 438.85L118.391 438.3C118.343 438.275 118.29 438.263 118.236 438.263C118.182 438.263 118.129 438.275 118.081 438.3L117.181 438.82C117.121 438.91 117.111 439 117.181 439Z" fill="#072B62"/>
<path d="M115.84 438.26L116.84 438.81C116.887 438.835 116.938 438.847 116.99 438.847C117.043 438.847 117.094 438.835 117.14 438.81L118.05 438.29C118.14 438.29 118.15 438.16 118.05 438.12L117.05 437.57C117.004 437.545 116.953 437.533 116.9 437.533C116.848 437.533 116.797 437.545 116.75 437.57L115.84 438.09C115.77 438.13 115.76 438.21 115.84 438.26Z" fill="#072B62"/>
<path d="M114.49 437.48L115.49 438.03C115.538 438.055 115.591 438.067 115.645 438.067C115.699 438.067 115.752 438.055 115.8 438.03L116.71 437.5C116.79 437.45 116.8 437.37 116.71 437.33L115.71 436.78C115.662 436.755 115.609 436.743 115.555 436.743C115.501 436.743 115.448 436.755 115.4 436.78L114.49 437.31C114.42 437.36 114.41 437.44 114.49 437.48Z" fill="#072B62"/>
<path d="M113.15 436.7L114.1 437.25C114.146 437.275 114.198 437.287 114.25 437.287C114.302 437.287 114.354 437.275 114.4 437.25L115.31 436.73C115.4 436.67 115.41 436.6 115.31 436.55L114.31 436C114.263 435.978 114.212 435.966 114.16 435.966C114.108 435.966 114.057 435.978 114.01 436L113.1 436.53C113.08 436.58 113.07 436.66 113.15 436.7Z" fill="#072B62"/>
<path d="M111.8 435.93L112.8 436.48C112.848 436.505 112.902 436.517 112.955 436.517C113.009 436.517 113.062 436.505 113.11 436.48L114.01 435.96C114.1 435.91 114.11 435.83 114.01 435.78L113.01 435.23C112.963 435.208 112.912 435.197 112.86 435.197C112.809 435.197 112.758 435.208 112.71 435.23L111.8 435.75C111.73 435.8 111.72 435.88 111.8 435.93Z" fill="#072B62"/>
<path d="M110.45 435.15L111.45 435.7C111.497 435.722 111.548 435.734 111.6 435.734C111.652 435.734 111.703 435.722 111.75 435.7L112.66 435.17C112.75 435.12 112.76 435.04 112.66 435L111.66 434.45C111.612 434.425 111.559 434.413 111.505 434.413C111.451 434.413 111.398 434.425 111.35 434.45L110.45 434.97C110.39 435 110.38 435.1 110.45 435.15Z" fill="#072B62"/>
<path d="M109.11 434.37L110.11 434.92C110.156 434.945 110.208 434.957 110.26 434.957C110.312 434.957 110.364 434.945 110.41 434.92L111.32 434.4C111.41 434.34 111.42 434.27 111.32 434.22L110.32 433.67C110.273 433.648 110.222 433.636 110.17 433.636C110.118 433.636 110.067 433.648 110.02 433.67L109.11 434.2C109 434.25 109 434.33 109.11 434.37Z" fill="#072B62"/>
<path d="M107.76 433.6L108.71 434.15C108.759 434.172 108.812 434.183 108.865 434.183C108.919 434.183 108.971 434.172 109.02 434.15L109.93 433.63C110.02 433.58 110.03 433.5 109.93 433.45L108.93 432.9C108.882 432.875 108.829 432.863 108.775 432.863C108.721 432.863 108.668 432.875 108.62 432.9L107.71 433.42C107.7 433.47 107.69 433.55 107.76 433.6Z" fill="#072B62"/>
<path d="M106.42 432.82L107.42 433.37C107.467 433.392 107.518 433.404 107.57 433.404C107.622 433.404 107.673 433.392 107.72 433.37L108.63 432.84C108.72 432.79 108.73 432.71 108.63 432.67L107.68 432.12C107.634 432.095 107.582 432.083 107.53 432.083C107.478 432.083 107.426 432.095 107.38 432.12L106.47 432.64C106.35 432.7 106.34 432.77 106.42 432.82Z" fill="#072B62"/>
<path d="M105.07 432L106.07 432.55C106.118 432.575 106.171 432.587 106.225 432.587C106.279 432.587 106.332 432.575 106.38 432.55L107.28 432.02C107.37 431.97 107.38 431.89 107.28 431.85L106.28 431.3C106.233 431.278 106.182 431.266 106.13 431.266C106.078 431.266 106.027 431.278 105.98 431.3L105.07 431.83C105 431.92 105 432 105.07 432Z" fill="#072B62"/>
<path d="M102.061 430.3L104.681 431.81C104.727 431.835 104.778 431.847 104.831 431.847C104.883 431.847 104.934 431.835 104.981 431.81L105.891 431.29C105.981 431.29 105.991 431.16 105.891 431.11L103.271 429.6C103.224 429.578 103.173 429.566 103.121 429.566C103.069 429.566 103.018 429.578 102.971 429.6L102.061 430.13C102.001 430.18 102.001 430.26 102.061 430.3Z" fill="#072B62"/>
<path d="M119.881 440.59L121.171 441.34C121.219 441.362 121.272 441.374 121.326 441.374C121.379 441.374 121.432 441.362 121.481 441.34L122.381 440.81C122.471 440.76 122.481 440.68 122.381 440.64L121.081 439.89C121.035 439.865 120.983 439.853 120.931 439.853C120.878 439.853 120.827 439.865 120.781 439.89L119.871 440.41C119.811 440.47 119.801 440.54 119.881 440.59Z" fill="#072B62"/>
<path d="M129.741 437.91L108.141 425.44V408.44L108.311 408.06L108.491 407.97C108.718 407.842 108.975 407.775 109.236 407.775C109.497 407.775 109.753 407.842 109.981 407.97L129.741 419.39C129.969 419.519 130.158 419.707 130.29 419.934C130.422 420.16 130.491 420.418 130.491 420.68V436.61C130.351 437.45 130.201 437.65 129.741 437.91Z" fill="#E5E5E5"/>
<path d="M127.761 421.45L108.141 409V408.43L108.311 408.05L108.491 407.96C108.718 407.832 108.975 407.765 109.236 407.765C109.497 407.765 109.753 407.832 109.981 407.96L129.741 419.38C129.982 419.515 130.18 419.716 130.311 419.96L127.761 421.45Z" fill="#E5E5E5"/>
<path d="M108.641 408.07L129.381 420.07C129.49 420.132 129.581 420.222 129.645 420.331C129.708 420.44 129.741 420.564 129.741 420.69V437.93L108.141 425.46V408.36C108.139 408.301 108.154 408.243 108.183 408.191C108.212 408.14 108.254 408.097 108.305 408.067C108.356 408.038 108.414 408.022 108.473 408.023C108.532 408.023 108.59 408.04 108.641 408.07Z" fill="#DCEEFF"/>
<path d="M108.641 408.07L129.381 420.07C129.49 420.132 129.581 420.222 129.645 420.331C129.708 420.44 129.741 420.564 129.741 420.69V437.93L108.141 425.46V408.36C108.139 408.301 108.154 408.243 108.183 408.191C108.212 408.14 108.254 408.097 108.305 408.067C108.356 408.038 108.414 408.022 108.473 408.023C108.532 408.023 108.59 408.04 108.641 408.07Z" fill="#F4F4F4"/>
<path d="M129.741 437.91V437.3L108.141 424.82V425.44L129.741 437.91Z" fill="#DBDBDB"/>
<path d="M108.701 424.54V408.96L108.971 409.11V424.4L108.701 424.54Z" fill="#1E3779"/>
<path d="M108.971 409.11V424.4L129.051 435.97V420.71L108.971 409.11Z" fill="#072B62"/>
<path d="M108.701 424.54L129.051 436.28V435.97L108.971 424.4L108.701 424.54Z" fill="#031F60"/>
<path d="M85.4406 405.37C84.9306 406.65 86.2406 408.21 89.7206 409.31C93.2006 410.41 93.5206 409 93.5206 409C95.8394 410.035 98.0994 411.197 100.291 412.48C102.381 413.95 103.291 418.17 103.581 425.31C103.911 433.57 103.941 445.83 103.661 447.94C103.661 447.94 99.7606 451.84 94.7606 451.43C89.7606 451.02 81.3506 446.59 79.3106 443.18C79.3106 435.93 80.2106 434.75 79.0406 430.58C76.3506 421.03 74.9406 417.12 76.2406 410.77C77.3206 405.54 78.8306 404.89 80.8906 404.94C82.4138 405.002 83.9327 405.145 85.4406 405.37Z" fill="#F4F4F4"/>
<path d="M111.81 434.17C107.7 435.17 106.74 432.62 106.2 430.47C104.9 425.29 104.2 420.6 103.2 417.66C102.05 414.19 100.85 413.66 99.2 412.96C97.2 412.17 95.51 413.84 96.2 418.26C97.0065 423.388 98.2648 428.434 99.96 433.34C100.47 434.96 101.62 437.83 103.33 439.21C105.45 440.92 108.63 440.85 113.46 439.65C115.46 439.14 117.77 437.91 121.66 436.09C122.66 435.61 123.52 435.28 125.52 434.35C127.537 433.456 129.305 432.083 130.67 430.35C131.72 428.83 131.86 428.12 131.67 427.77C131.48 427.42 130.93 427.43 130.37 428.07C129.548 429.158 128.531 430.084 127.37 430.8C127.37 430.8 128.67 429.47 129.37 428.6C130.005 427.831 130.527 426.976 130.92 426.06C131.3 425.17 130.53 423.97 129.92 424.6C129.31 425.23 129.06 425.88 128 427.15C127.444 427.83 126.806 428.438 126.1 428.96C126.759 428.069 127.344 427.126 127.85 426.14C128.307 425.374 128.53 424.491 128.49 423.6C128.49 423.13 127.81 422.6 127.19 423.46C126.596 424.669 125.858 425.8 124.99 426.83C124.05 427.83 123.26 428.36 123.23 428.09C123.2 427.82 123.8 427.29 124.13 426.16C124.46 425.03 124.13 423.82 123.51 423.69C122.89 423.56 123 423.6 122.51 424.69C121.817 425.779 121.196 426.911 120.65 428.08C120.33 429.169 119.75 430.165 118.96 430.98C117.94 432 115.71 433.19 111.81 434.17Z" fill="#FFCEA9"/>
<path d="M97.6703 412.25C100.41 411.85 102.34 413.08 103.55 417.25C104.76 421.42 105.61 424.81 105.61 424.81C104.515 426.355 102.875 427.427 101.02 427.81C97.7403 428.6 96.5603 427.04 96.5603 427.04C96.5603 427.04 95.6503 422.68 95.0903 419.72C94.5303 416.76 94.2803 412.75 97.6703 412.25Z" fill="#EDEDED"/>
<path d="M98.9999 391C98.9999 391 103.33 384.42 93.9999 383.08C87.2299 382.08 82.8899 386.46 82.3799 391.17C81.8999 395.68 84.6799 400.36 86.6799 402.22C88.6508 402.712 90.7338 402.459 92.5299 401.51C92.6421 400.283 92.6855 399.051 92.6599 397.82C92.6599 397.82 89.3299 390.88 98.9999 391Z" fill="#072B62"/>
<path d="M117.79 474.26V454.5L102.1 463.66L108.14 476.16L117.79 474.26Z" fill="#C4C7D6"/>
<path d="M107.51 455.64L113.53 452.14L117.79 454.61L111.55 458.15L107.51 455.64Z" fill="#D6D8E5"/>
<path opacity="0.4" d="M31.7495 345.63L4.99952 329.94C1.99952 328.16 2.33952 325.05 5.84952 323L19.4495 315C22.9595 313 28.2595 312.73 31.2995 314.51L58.0895 330.2C61.0895 331.97 60.7395 335.08 57.2395 337.14L43.6395 345.14C40.0895 347.19 34.7795 347.41 31.7495 345.63Z" fill="#D6D8E5"/>
<path d="M65.0003 330.16V292.23L7.78027 285.7V323.87C7.79122 324.523 7.98422 325.16 8.33755 325.71C8.69088 326.259 9.19053 326.699 9.78027 326.98L36.6003 342.67C39.6003 344.45 44.9503 344.23 48.4503 342.17L62.0503 334.17C64.0503 333.01 65.0503 331.52 64.9503 330.17L65.0003 330.16Z" fill="#D6D8E5"/>
<path d="M64.9403 296.37V292.23H60.5403L36.1203 277.91C33.1203 276.13 27.7703 276.36 24.2703 278.41L10.6703 286.41C10.4248 286.549 10.1877 286.703 9.96027 286.87L7.78027 285.7C7.78027 285.7 7.78027 290.07 7.78027 290.22C7.79533 290.871 7.99012 291.505 8.34308 292.052C8.69605 292.599 9.19345 293.038 9.78027 293.32L36.6003 309C39.6003 310.78 44.9503 310.55 48.4503 308.5L62.0503 300.5C64.0503 299.31 65.0503 297.77 64.9403 296.33V296.37Z" fill="#EDF0F9"/>
<path d="M36.5998 304.5L9.81983 288.81C6.81983 287.03 7.15983 283.92 10.6698 281.87L24.2698 273.87C27.7698 271.87 33.0798 271.59 36.1198 273.37L62.9098 289.06C65.9098 290.84 65.5598 293.95 62.0498 296L48.4498 304C44.9998 306.05 39.6398 306.28 36.5998 304.5Z" fill="#E2E5F2"/>
<path d="M30.5696 283.08V281.57H29.6596L29.3696 281.39C28.4749 280.927 27.4821 280.685 26.4746 280.685C25.4672 280.685 24.4744 280.927 23.5796 281.39C23.4086 281.487 23.2478 281.601 23.0996 281.73L22.3896 281.57V283.08C22.4135 283.445 22.5371 283.797 22.7469 284.096C22.9567 284.396 23.2448 284.633 23.5796 284.78C24.4759 285.238 25.4681 285.477 26.4746 285.477C27.4812 285.477 28.4734 285.238 29.3696 284.78C29.7013 284.627 29.9869 284.389 30.1975 284.091C30.4082 283.792 30.5365 283.444 30.5696 283.08Z" fill="#072B62"/>
<path d="M26.4796 283.97C28.7385 283.97 30.5696 282.895 30.5696 281.57C30.5696 280.245 28.7385 279.17 26.4796 279.17C24.2208 279.17 22.3896 280.245 22.3896 281.57C22.3896 282.895 24.2208 283.97 26.4796 283.97Z" fill="#0B4294"/>
<path d="M40.4495 288.77V287.26H39.5395L39.2595 287.08C38.3647 286.617 37.372 286.375 36.3645 286.375C35.3571 286.375 34.3643 286.617 33.4695 287.08C33.2939 287.174 33.1295 287.289 32.9795 287.42L32.2695 287.26V288.77C32.3027 289.134 32.431 289.482 32.6417 289.781C32.8523 290.079 33.1379 290.317 33.4695 290.47C34.3658 290.928 35.358 291.167 36.3645 291.167C37.3711 291.167 38.3633 290.928 39.2595 290.47C39.5944 290.323 39.8824 290.086 40.0923 289.786C40.3021 289.487 40.4257 289.135 40.4495 288.77Z" fill="#072B62"/>
<path d="M36.3595 289.66C38.6184 289.66 40.4495 288.585 40.4495 287.26C40.4495 285.935 38.6184 284.86 36.3595 284.86C34.1007 284.86 32.2695 285.935 32.2695 287.26C32.2695 288.585 34.1007 289.66 36.3595 289.66Z" fill="#0B4294"/>
<path d="M50.3502 294.85V293.34H49.4302L49.1502 293.16C48.2554 292.697 47.2626 292.455 46.2552 292.455C45.2477 292.455 44.2549 292.697 43.3602 293.16C43.1867 293.258 43.0227 293.372 42.8702 293.5L42.1602 293.34V294.85C42.1913 295.214 42.3188 295.564 42.5297 295.863C42.7406 296.161 43.0272 296.399 43.3602 296.55C44.2549 297.013 45.2477 297.255 46.2552 297.255C47.2626 297.255 48.2554 297.013 49.1502 296.55C49.4831 296.399 49.7697 296.161 49.9806 295.863C50.1915 295.564 50.319 295.214 50.3502 294.85Z" fill="#072B62"/>
<path d="M46.2502 295.74C48.509 295.74 50.3402 294.665 50.3402 293.34C50.3402 292.015 48.509 290.94 46.2502 290.94C43.9913 290.94 42.1602 292.015 42.1602 293.34C42.1602 294.665 43.9913 295.74 46.2502 295.74Z" fill="#0B4294"/>
</g>
<defs>
<clipPath id="clip0_47_1007">
<rect width="457.97" height="500" fill="white"/>
</clipPath>
</defs>
</svg>
